<svg xmlns="http://www.w3.org/2000/svg" width="20" height="20" viewBox="0 0 20 20" fill="none">
  <path d="M0.750244 0.750122L2.83024 1.11012L3.79324 12.5831C3.87024 13.5201 4.65324 14.2391 5.59324 14.2361H16.5022C17.3992 14.2381 18.1602 13.5781 18.2872 12.6901L19.2362 6.13212C19.3422 5.39912 18.8332 4.71912 18.1012 4.61312C18.0372 4.60412 3.16424 4.59912 3.16424 4.59912" stroke="#1A162E" stroke-width="1.5" stroke-linecap="round" stroke-linejoin="round"/>
  <path d="M12.1252 8.29501H14.8982" stroke="#1A162E" stroke-width="1.5" stroke-linecap="round" stroke-linejoin="round"/>
  <path fill-rule="evenodd" clip-rule="evenodd" d="M5.1546 17.7027C5.4556 17.7027 5.6986 17.9467 5.6986 18.2467C5.6986 18.5477 5.4556 18.7917 5.1546 18.7917C4.8536 18.7917 4.6106 18.5477 4.6106 18.2467C4.6106 17.9467 4.8536 17.7027 5.1546 17.7027Z" fill="#1A162E" stroke="#1A162E" stroke-width="1.5" stroke-linecap="round" stroke-linejoin="round"/>
  <path fill-rule="evenodd" clip-rule="evenodd" d="M16.4349 17.7027C16.7359 17.7027 16.9799 17.9467 16.9799 18.2467C16.9799 18.5477 16.7359 18.7917 16.4349 18.7917C16.1339 18.7917 15.8909 18.5477 15.8909 18.2467C15.8909 17.9467 16.1339 17.7027 16.4349 17.7027Z" fill="#1A162E" stroke="#1A162E" stroke-width="1.5" stroke-linecap="round" stroke-linejoin="round"/>
</svg>